<?xml version="1.0" encoding="UTF-8" standalone="no"?>
<!-- Created with Inkscape (http://www.inkscape.org/) -->

<svg
   xmlns:dc="http://purl.org/dc/elements/1.1/"
   xmlns:cc="http://creativecommons.org/ns#"
   xmlns:rdf="http://www.w3.org/1999/02/22-rdf-syntax-ns#"
   xmlns:svg="http://www.w3.org/2000/svg"
   xmlns="http://www.w3.org/2000/svg"
   xmlns:sodipodi="http://sodipodi.sourceforge.net/DTD/sodipodi-0.dtd"
   xmlns:inkscape="http://www.inkscape.org/namespaces/inkscape"
   width="180"
   height="120"
   viewBox="0 0 180 120"
   id="svg2"
   version="1.1"
   inkscape:version="0.91 r13725"
   inkscape:export-filename="X:\Scott\GitHub\PictureTagger\PictureTagger\PictureTagger_UI_WinForms\Resources\sprites.png"
   inkscape:export-xdpi="90"
   inkscape:export-ydpi="90"
   sodipodi:docname="sprites.svg">
  <defs
     id="defs4">
    <filter
       inkscape:collect="always"
       style="color-interpolation-filters:sRGB"
       id="filter4682"
       x="-0.2433664"
       width="1.4867328"
       y="-0.23672546"
       height="1.4734509">
      <feGaussianBlur
         inkscape:collect="always"
         stdDeviation="3.04208"
         id="feGaussianBlur4684" />
    </filter>
    <filter
       inkscape:collect="always"
       style="color-interpolation-filters:sRGB"
       id="filter4710"
       x="-0.24"
       width="1.48"
       y="-0.24"
       height="1.48">
      <feGaussianBlur
         inkscape:collect="always"
         stdDeviation="3"
         id="feGaussianBlur4712" />
    </filter>
    <filter
       inkscape:collect="always"
       style="color-interpolation-filters:sRGB"
       id="filter4730"
       x="-0.24"
       width="1.48"
       y="-0.24"
       height="1.48">
      <feGaussianBlur
         inkscape:collect="always"
         stdDeviation="3"
         id="feGaussianBlur4732" />
    </filter>
  </defs>
  <sodipodi:namedview
     id="base"
     pagecolor="#263238"
     bordercolor="#666666"
     borderopacity="1.0"
     inkscape:pageopacity="0"
     inkscape:pageshadow="2"
     inkscape:zoom="2.8"
     inkscape:cx="248.57951"
     inkscape:cy="77.82998"
     inkscape:document-units="px"
     inkscape:current-layer="layer1"
     showgrid="false"
     borderlayer="true"
     inkscape:showpageshadow="false"
     units="px"
     inkscape:window-width="1858"
     inkscape:window-height="1057"
     inkscape:window-x="54"
     inkscape:window-y="-8"
     inkscape:window-maximized="1" />
  <metadata
     id="metadata7">
    <rdf:RDF>
      <cc:Work
         rdf:about="">
        <dc:format>image/svg+xml</dc:format>
        <dc:type
           rdf:resource="http://purl.org/dc/dcmitype/StillImage" />
        <dc:title></dc:title>
      </cc:Work>
    </rdf:RDF>
  </metadata>
  <g
     inkscape:label="Layer 1"
     inkscape:groupmode="layer"
     id="layer1"
     transform="translate(0,-932.36216)">
    <path
       style="fill:#79a4ff;fill-opacity:1;filter:url(#filter4682)"
       inkscape:connector-curvature="0"
       d="m 161.46106,1023.8731 c 0.0617,-0.4935 0.10795,-0.9869 0.10795,-1.5112 0,-0.5244 -0.0463,-1.0178 -0.10795,-1.5113 l 3.25379,-2.5444 c 0.293,-0.2313 0.3701,-0.6477 0.18504,-0.9869 l -3.08415,-5.3356 c -0.18505,-0.3393 -0.60141,-0.4627 -0.94067,-0.3393 l -3.83978,1.5421 c -0.80188,-0.6169 -1.66545,-1.1257 -2.60611,-1.5113 l -0.58599,-4.0865 c -0.0463,-0.3701 -0.3701,-0.6476 -0.75562,-0.6476 l -6.16832,0 c -0.38552,0 -0.70936,0.2775 -0.75562,0.6476 l -0.58599,4.0865 c -0.94067,0.3856 -1.80424,0.9099 -2.60611,1.5113 l -3.83979,-1.5421 c -0.35467,-0.1388 -0.75561,0 -0.94066,0.3393 l -3.08417,5.3356 c -0.20046,0.3392 -0.10794,0.7556 0.18506,0.9869 l 3.25378,2.5444 c -0.0616,0.4935 -0.10794,1.0024 -0.10794,1.5113 0,0.5088 0.0463,1.0177 0.10794,1.5112 l -3.25378,2.5444 c -0.293,0.2313 -0.3701,0.6477 -0.18506,0.987 l 3.08417,5.3356 c 0.18505,0.3392 0.60141,0.4626 0.94066,0.3392 l 3.83979,-1.5421 c 0.80187,0.6169 1.66544,1.1258 2.60611,1.5113 l 0.58599,4.0865 c 0.0463,0.3701 0.3701,0.6477 0.75562,0.6477 l 6.16832,0 c 0.38552,0 0.70935,-0.2776 0.75562,-0.6477 l 0.58599,-4.0865 c 0.94066,-0.3855 1.80423,-0.9099 2.60611,-1.5113 l 3.83978,1.5421 c 0.35468,0.1388 0.75562,0 0.94067,-0.3392 l 3.08416,-5.3356 c 0.18504,-0.3393 0.10794,-0.7557 -0.18505,-0.987 l -3.25378,-2.5444 z m -11.45765,3.886 c -2.97621,0 -5.39728,-2.421 -5.39728,-5.3972 0,-2.9763 2.42107,-5.3973 5.39728,-5.3973 2.97621,0 5.39727,2.421 5.39727,5.3973 0,2.9762 -2.42106,5.3972 -5.39727,5.3972 z"
       id="path4520" />
    <path
       style="fill:#79a4ff;fill-opacity:1;filter:url(#filter4710)"
       inkscape:connector-curvature="0"
       d="m 78.000001,1013.3619 -3,0 0,21 c 0,1.65 1.35,3 3,3 l 20.999998,0 0,-3 -20.999998,0 0,-21 z m 23.999999,-6 -17.999999,0 c -1.65,0 -3,1.35 -3,3 l 0,18 c 0,1.65 1.35,3 3,3 l 17.999999,0 c 1.65,0 3,-1.35 3,-3 l 0,-18 c 0,-1.65 -1.35,-3 -3,-3 z m -1.5,13.5 -6.000001,0 0,6 -3,0 0,-6 -5.999999,0 0,-3 5.999999,0 0,-6 3,0 0,6 6.000001,0 0,3 z"
       id="path4270" />
    <path
       style="fill:#79a4ff;fill-opacity:1;filter:url(#filter4730)"
       inkscape:connector-curvature="0"
       d="m 45,1028.3619 0,-18 c 0,-1.65 -1.35,-3 -3,-3 l -18,0 c -1.65,0 -3,1.35 -3,3 l 0,18 c 0,1.65 1.35,3 3,3 l 18,0 c 1.65,0 3,-1.35 3,-3 z m -16.5,-6 3.045,4.065 4.455,-5.565 6,7.5 -18,0 4.5,-6 z m -13.5,-9 0,21 c 0,1.65 1.35,3 3,3 l 21,0 0,-3 -21,0 0,-21 -3,0 z"
       id="path4274" />
    <path
       style="fill:#ffffff"
       inkscape:connector-curvature="0"
       d="m 78.000001,953.36218 -3,0 0,21 c 0,1.65 1.35,3 3,3 l 20.999998,0 0,-3 -20.999998,0 0,-21 z m 23.999999,-6 -17.999999,0 c -1.65,0 -3,1.35 -3,3 l 0,18 c 0,1.65 1.35,3 3,3 l 17.999999,0 c 1.65,0 3,-1.35 3,-3 l 0,-18 c 0,-1.65 -1.35,-3 -3,-3 z m -1.5,13.5 -6.000001,0 0,6 -3,0 0,-6 -5.999999,0 0,-3 5.999999,0 0,-6 3,0 0,6 6.000001,0 0,3 z"
       id="path3390" />
    <path
       style="fill:#ffffff"
       inkscape:connector-curvature="0"
       d="m 161.46106,963.87338 c 0.0617,-0.4935 0.10795,-0.9869 0.10795,-1.5112 0,-0.5244 -0.0463,-1.0178 -0.10795,-1.5113 l 3.25379,-2.5444 c 0.293,-0.2313 0.3701,-0.6477 0.18504,-0.9869 l -3.08415,-5.3356 c -0.18505,-0.3393 -0.60141,-0.4627 -0.94067,-0.3393 l -3.83978,1.5421 c -0.80188,-0.6169 -1.66545,-1.1257 -2.60611,-1.5113 l -0.58599,-4.0865 c -0.0463,-0.3701 -0.3701,-0.6476 -0.75562,-0.6476 l -6.16832,0 c -0.38552,0 -0.70936,0.2775 -0.75562,0.6476 l -0.58599,4.0865 c -0.94067,0.3856 -1.80424,0.9099 -2.60611,1.5113 l -3.83979,-1.5421 c -0.35467,-0.1388 -0.75561,0 -0.94066,0.3393 l -3.08417,5.3356 c -0.20046,0.3392 -0.10794,0.7556 0.18506,0.9869 l 3.25378,2.5444 c -0.0616,0.4935 -0.10794,1.0024 -0.10794,1.5113 0,0.5088 0.0463,1.0177 0.10794,1.5112 l -3.25378,2.5444 c -0.293,0.2313 -0.3701,0.6477 -0.18506,0.987 l 3.08417,5.3356 c 0.18505,0.3392 0.60141,0.4626 0.94066,0.3392 l 3.83979,-1.5421 c 0.80187,0.6169 1.66544,1.1258 2.60611,1.5113 l 0.58599,4.0865 c 0.0463,0.3701 0.3701,0.6477 0.75562,0.6477 l 6.16832,0 c 0.38552,0 0.70935,-0.2776 0.75562,-0.6477 l 0.58599,-4.0865 c 0.94066,-0.3855 1.80423,-0.9099 2.60611,-1.5113 l 3.83978,1.5421 c 0.35468,0.1388 0.75562,0 0.94067,-0.3392 l 3.08416,-5.3356 c 0.18504,-0.3393 0.10794,-0.7557 -0.18505,-0.987 l -3.25378,-2.5444 z m -11.45765,3.886 c -2.97621,0 -5.39728,-2.421 -5.39728,-5.3972 0,-2.9763 2.42107,-5.3973 5.39728,-5.3973 2.97621,0 5.39727,2.421 5.39727,5.3973 0,2.9762 -2.42106,5.3972 -5.39727,5.3972 z"
       id="path3406" />
    <path
       style="fill:#ffffff"
       inkscape:connector-curvature="0"
       d="m 45,968.36218 0,-18 c 0,-1.65 -1.35,-3 -3,-3 l -18,0 c -1.65,0 -3,1.35 -3,3 l 0,18 c 0,1.65 1.35,3 3,3 l 18,0 c 1.65,0 3,-1.35 3,-3 z m -16.5,-6 3.045,4.065 4.455,-5.565 6,7.5 -18,0 4.5,-6 z m -13.5,-9 0,21 c 0,1.65 1.35,3 3,3 l 21,0 0,-3 -21,0 0,-21 -3,0 z"
       id="path3422" />
    <path
       id="path4248"
       d="m 326.42857,907.79074 60,0 0,60 -60,0 z"
       inkscape:connector-curvature="0"
       style="fill:none" />
    <rect
       y="932.07648"
       x="191.78572"
       height="60"
       width="60"
       id="rect4250"
       style="opacity:1;fill:#ececec;fill-opacity:0.43452382;stroke:none;stroke-opacity:1" />
    <path
       id="path4264"
       d="m 78.000001,1013.3619 -3,0 0,21 c 0,1.65 1.35,3 3,3 l 20.999998,0 0,-3 -20.999998,0 0,-21 z m 23.999999,-6 -17.999999,0 c -1.65,0 -3,1.35 -3,3 l 0,18 c 0,1.65 1.35,3 3,3 l 17.999999,0 c 1.65,0 3,-1.35 3,-3 l 0,-18 c 0,-1.65 -1.35,-3 -3,-3 z m -1.5,13.5 -6.000001,0 0,6 -3,0 0,-6 -5.999999,0 0,-3 5.999999,0 0,-6 3,0 0,6 6.000001,0 0,3 z"
       inkscape:connector-curvature="0"
       style="fill:#cdf6ff;fill-opacity:1" />
    <path
       id="path4266"
       d="m 161.46106,1023.8731 c 0.0617,-0.4935 0.10795,-0.9869 0.10795,-1.5112 0,-0.5244 -0.0463,-1.0178 -0.10795,-1.5113 l 3.25379,-2.5444 c 0.293,-0.2313 0.3701,-0.6477 0.18504,-0.9869 l -3.08415,-5.3356 c -0.18505,-0.3393 -0.60141,-0.4627 -0.94067,-0.3393 l -3.83978,1.5421 c -0.80188,-0.6169 -1.66545,-1.1257 -2.60611,-1.5113 l -0.58599,-4.0865 c -0.0463,-0.3701 -0.3701,-0.6476 -0.75562,-0.6476 l -6.16832,0 c -0.38552,0 -0.70936,0.2775 -0.75562,0.6476 l -0.58599,4.0865 c -0.94067,0.3856 -1.80424,0.9099 -2.60611,1.5113 l -3.83979,-1.5421 c -0.35467,-0.1388 -0.75561,0 -0.94066,0.3393 l -3.08417,5.3356 c -0.20046,0.3392 -0.10794,0.7556 0.18506,0.9869 l 3.25378,2.5444 c -0.0616,0.4935 -0.10794,1.0024 -0.10794,1.5113 0,0.5088 0.0463,1.0177 0.10794,1.5112 l -3.25378,2.5444 c -0.293,0.2313 -0.3701,0.6477 -0.18506,0.987 l 3.08417,5.3356 c 0.18505,0.3392 0.60141,0.4626 0.94066,0.3392 l 3.83979,-1.5421 c 0.80187,0.6169 1.66544,1.1258 2.60611,1.5113 l 0.58599,4.0865 c 0.0463,0.3701 0.3701,0.6477 0.75562,0.6477 l 6.16832,0 c 0.38552,0 0.70935,-0.2776 0.75562,-0.6477 l 0.58599,-4.0865 c 0.94066,-0.3855 1.80423,-0.9099 2.60611,-1.5113 l 3.83978,1.5421 c 0.35468,0.1388 0.75562,0 0.94067,-0.3392 l 3.08416,-5.3356 c 0.18504,-0.3393 0.10794,-0.7557 -0.18505,-0.987 l -3.25378,-2.5444 z m -11.45765,3.886 c -2.97621,0 -5.39728,-2.421 -5.39728,-5.3972 0,-2.9763 2.42107,-5.3973 5.39728,-5.3973 2.97621,0 5.39727,2.421 5.39727,5.3973 0,2.9762 -2.42106,5.3972 -5.39727,5.3972 z"
       inkscape:connector-curvature="0"
       style="fill:#cdf6ff;fill-opacity:1" />
    <path
       id="path4268"
       d="m 45,1028.3619 0,-18 c 0,-1.65 -1.35,-3 -3,-3 l -18,0 c -1.65,0 -3,1.35 -3,3 l 0,18 c 0,1.65 1.35,3 3,3 l 18,0 c 1.65,0 3,-1.35 3,-3 z m -16.5,-6 3.045,4.065 4.455,-5.565 6,7.5 -18,0 4.5,-6 z m -13.5,-9 0,21 c 0,1.65 1.35,3 3,3 l 21,0 0,-3 -21,0 0,-21 -3,0 z"
       inkscape:connector-curvature="0"
       style="fill:#cdf6ff;fill-opacity:1" />
    <text
       xml:space="preserve"
       style="font-style:normal;font-weight:normal;font-size:40px;line-height:125%;font-family:sans-serif;letter-spacing:0px;word-spacing:0px;fill:#000000;fill-opacity:1;stroke:none;stroke-width:1px;stroke-linecap:butt;stroke-linejoin:miter;stroke-opacity:1"
       x="262.5"
       y="943.79071"
       id="text4504"
       sodipodi:linespacing="125%"><tspan
         sodipodi:role="line"
         id="tspan4506"
         x="262.5"
         y="943.79071"
         style="font-size:15px;fill:#ffffff">Sprites are <tspan
   style="font-weight:bold"
   id="tspan4746">30<tspan
   style="font-weight:normal"
   id="tspan4748">x</tspan>30</tspan></tspan><tspan
         sodipodi:role="line"
         x="262.5"
         y="962.54071"
         style="font-size:15px;fill:#ffffff"
         id="tspan4508">within a <tspan
   style="font-weight:bold"
   id="tspan4752">60</tspan>x<tspan
   style="font-weight:bold"
   id="tspan4750">60</tspan> box.</tspan><tspan
         sodipodi:role="line"
         x="262.5"
         y="981.29071"
         style="font-size:15px;fill:#ffffff"
         id="tspan4512" /><tspan
         sodipodi:role="line"
         x="262.5"
         y="1000.0407"
         style="font-size:15px;fill:#ffffff"
         id="tspan4514">Selected sprites are</tspan><tspan
         sodipodi:role="line"
         x="262.5"
         y="1018.7907"
         style="font-size:15px;fill:#ffffff"
         id="tspan4516">duplicated with a </tspan><tspan
         sodipodi:role="line"
         x="262.5"
         y="1037.5408"
         style="font-size:15px;fill:#ffffff"
         id="tspan4518">#<tspan
   style="font-weight:bold"
   id="tspan4738"><tspan
   style="fill:#79a4ff;fill-opacity:1"
   id="tspan4744">79a4ffff</tspan> 12.0</tspan>px blur</tspan><tspan
         sodipodi:role="line"
         x="262.5"
         y="1056.2908"
         style="font-size:15px;fill:#ffffff"
         id="tspan4734">and #<tspan
   style="font-weight:bold;fill:#cdf6ff;fill-opacity:1"
   id="tspan4736">cdf6ffff</tspan> fill</tspan></text>
    <rect
       style="opacity:1;fill:#ffffff;fill-opacity:1;stroke:none;stroke-opacity:1"
       id="rect4510"
       width="30"
       height="30"
       x="206.78572"
       y="947.07648" />
  </g>
</svg>
